PathFileType	3	(X/Y/Z)	F:\ViconData\AntennenMessung\Messung1\Session1\ID17.trc
DataRate	CameraRate	NumFrames	NumMarkers	Units	OrigDataRate	OrigDataStartFrame	OrigNumFrames
120.0	120.0	4	70	mm	120.0	551	880	
Frame#	Time	Ashort			Along			Atop			A4			Bshort			Blong			Btop			B4			Cshort			Clong			Ctop			C4			Dshort			Dlong			Dtop			D4			Eshort			Elong			Etop			E4			Fshort			Flong			Ftop			F4			Gshort			Glong			Gtop			G4			Hshort			Hlong			Htop			H4			I1			I2			I3			I4			I5			WandAshort			WandAlong			WandAtop			WandA4			WandA15			WandBshort			WandB4			WandB5			WandBtop			WandBlong			WandCshort			WandClong			WandCtop			WandC4			WandC5			Acenter			Aantenna			Bcenter			Bantenna			Ccenter			Cantenna			Dcenter			Dantenna			Ecenter			Eantenna			Fcenter			Fantenna			Gcenter			Gantenna			Hcenter			Hantenna			Icenter			Iantenna			
		X1	Y1	Z1	X2	Y2	Z2	X3	Y3	Z3	X4	Y4	Z4	X5	Y5	Z5	X6	Y6	Z6	X7	Y7	Z7	X8	Y8	Z8	X9	Y9	Z9	X10	Y10	Z10	X11	Y11	Z11	X12	Y12	Z12	X13	Y13	Z13	X14	Y14	Z14	X15	Y15	Z15	X16	Y16	Z16	X17	Y17	Z17	X18	Y18	Z18	X19	Y19	Z19	X20	Y20	Z20	X21	Y21	Z21	X22	Y22	Z22	X23	Y23	Z23	X24	Y24	Z24	X25	Y25	Z25	X26	Y26	Z26	X27	Y27	Z27	X28	Y28	Z28	X29	Y29	Z29	X30	Y30	Z30	X31	Y31	Z31	X32	Y32	Z32	X33	Y33	Z33	X34	Y34	Z34	X35	Y35	Z35	X36	Y36	Z36	X37	Y37	Z37	X38	Y38	Z38	X39	Y39	Z39	X40	Y40	Z40	X41	Y41	Z41	X42	Y42	Z42	X43	Y43	Z43	X44	Y44	Z44	X45	Y45	Z45	X46	Y46	Z46	X47	Y47	Z47	X48	Y48	Z48	X49	Y49	Z49	X50	Y50	Z50	X51	Y51	Z51	X52	Y52	Z52	X53	Y53	Z53	X54	Y54	Z54	X55	Y55	Z55	X56	Y56	Z56	X57	Y57	Z57	X58	Y58	Z58	X59	Y59	Z59	X60	Y60	Z60	X61	Y61	Z61	X62	Y62	Z62	X63	Y63	Z63	X64	Y64	Z64	X65	Y65	Z65	X66	Y66	Z66	X67	Y67	Z67	X68	Y68	Z68	X69	Y69	Z69	X70	Y70	Z70	
551	4.5833333	-1038.2214	214.51151	-1644.2275	-1109.4207	203.96378	-1599.2772	-1063.7944	172.94252	-1625.6786	-1054.2053	262.18564	-1634.944	-1352.9531	234.79135	1003.7037	-1281.3092	227.29079	1052.2953	-1322.8191	193.69136	1021.0266	-1284.6693	287.71494	1052.8916	813.98462	187.62114	1209.4706	892.22205	178.479	1179.2772	844.47473	145.59071	1198.1791	860.94214	292.40936	1168.5054	1115.7496	209.82979	-1401.7803	1056.2081	193.89096	-1460.2684	1095.1926	162.36746	-1423.9667	1069.7899	238.66832	-1425.8392	-1204.5834	1685.998	-1563.0947	-1129.1688	1688.2527	-1606.0031	-1173.1838	1724.4119	-1581.9677	-1134.0791	1580.9429	-1603.8372	-1239.5023	1698.9062	1119.4052	-1308.2701	1699.1591	1068.634	-1270.3627	1736.2162	1096.8727	-1245.3325	1592.485	1110.6311	988.86652	1664.238	1162.2346	955.85297	1702.3562	1181.0837	922.90338	1662.0538	1215.0803	939.7641	1659.4504	1159.9115	999.01849	1668.4218	-1579.4607	1058.7395	1669.9636	-1518.6499	1024.9603	1708.0125	-1551.1138	1059.2408	1672.1073	-1585.4528	-184.52199	167.26643	-293.97757	-175.20857	174.70796	-377.52979	-180.07292	132.56975	-335.34042	-211.85335	170.24236	-333.15009	-133.15262	168.85884	-326.17963																																														-1068.803	209.98103	-1624.9205	-1074.028	248.62134	-1624.1296	-1321.5548	231.50417	1024.9991	-1320.2585	270.26929	1029.0718	848.18329	183.62498	1196.2726	851.96338	222.39268	1194.3293	1088.7161	202.59311	-1428.3354	1082.552	240.87776	-1432.4934	-1171.9052	1686.975	-1581.6875	-1170.574	1647.9988	-1581.3958	-1270.3308	1699.0195	1096.6445	-1270.2974	1660.0203	1096.4053	953.66199	1704.8859	1182.3347	972.98767	1731.7972	1161.7606	1026.4189	1669.129	-1551.5603	1027.8807	1630.1591	-1552.0079	-180.28673	170.65044	-331.9726	-180.50487	209.4982	-328.53693
552	4.5916667	-1038.2521	214.40706	-1644.1791	-1109.3912	204.1266	-1599.3575	-1063.7216	172.95145	-1625.734	-1054.2123	262.20367	-1634.983	-1352.9224	234.79585	1003.6249	-1281.3302	227.13599	1052.4214	-1322.8518	193.67386	1021.0371	-1284.6914	287.77606	1052.8136	813.9491	187.6158	1209.3328	892.07751	178.36555	1179.1885	844.41211	145.56671	1198.1553	861.00037	292.51044	1168.4873	1115.7034	209.56992	-1401.6364	1056.2469	194.00531	-1460.3347	1095.1472	162.35925	-1423.9382	1069.8207	238.71622	-1425.8447	-1204.5737	1685.989	-1563.0925	-1129.1587	1688.2871	-1606.0298	-1173.1724	1724.3921	-1581.9768	-1134.0726	1580.9475	-1603.8376	-1239.5	1698.9216	1119.4062	-1309.1626	1698.5005	1071.8167	-1270.3787	1736.2355	1096.8745	-1245.4497	1592.6447	1110.6774	988.84369	1664.2086	1162.2173	955.7771	1702.2853	1181.0103	922.84747	1662.0071	1215.0768	939.80267	1659.4548	1159.8395	999.03705	1668.4066	-1579.4515	1058.7166	1669.9541	-1518.641	1024.952	1708.0148	-1551.1156	1059.2432	1672.1201	-1585.4478	-184.55562	167.24106	-293.99203	-175.22871	174.72379	-377.53918	-180.09778	132.56746	-335.32944	-211.84552	170.2422	-333.14554	-133.11555	168.90115	-326.13501																																														-1068.6372	210.01602	-1625.0347	-1073.7638	248.67073	-1624.3055	-1321.528	231.43686	1025.0228	-1320.1692	270.19788	1029.114	848.13489	183.56825	1196.1428	851.93213	222.32864	1194.0902	1088.8176	202.53172	-1428.1792	1082.7804	240.84869	-1432.2242	-1171.8788	1686.9852	-1581.7072	-1170.5311	1648.0095	-1581.4263	-1270.8934	1698.7319	1097.9598	-1271.4286	1659.752	1099.0881	953.5459	1704.8542	1182.2782	972.83112	1731.7715	1161.6737	1026.4115	1669.1162	-1551.5581	1027.8738	1630.1462	-1552.0013	-180.31877	170.64015	-331.94418	-180.54427	209.48625	-328.4902
553	4.6	-1038.2087	214.40518	-1644.1515	-1109.3796	204.06865	-1599.3616	-1063.895	172.39413	-1625.3867	-1054.1873	262.1778	-1634.9608	-1352.9364	234.78035	1003.8354	-1281.3704	227.3159	1052.3008	-1322.838	193.65692	1021.0711	-1284.6909	287.76535	1052.8525	813.94867	187.60492	1209.4825	892.37085	178.48131	1179.1779	844.38843	145.58105	1198.266	860.95593	292.57742	1168.4645	1115.7242	209.56912	-1401.6377	1056.2329	193.96918	-1460.3352	1095.1793	162.36192	-1423.9708	1069.7815	238.71907	-1425.8533	-1204.5919	1685.9907	-1563.0752	-1129.155	1688.2716	-1606.032	-1173.1747	1724.4061	-1581.9683	-1134.0737	1580.9482	-1603.8472	-1239.4742	1698.9031	1119.408	-1309.0421	1698.2997	1071.7555	-1270.3667	1736.213	1096.8689	-1245.528	1592.7009	1110.6659	988.8465	1664.21	1162.2169	955.75403	1702.2618	1181.0117	922.77966	1661.9709	1215.0631	939.77716	1659.4286	1159.8645	999.02173	1668.4315	-1579.4705	1058.7308	1669.9503	-1518.6394	1024.9519	1708.0063	-1551.1195	1059.2341	1672.1014	-1585.4413	-184.53488	167.23509	-293.98059	-175.22591	174.70515	-377.52771	-180.29263	132.4184	-335.10175	-211.83815	170.26482	-333.15125	-133.10158	168.92448	-326.16714																																														-1068.9724	209.93716	-1624.7908	-1074.199	248.58052	-1624.1776	-1321.5924	231.51112	1025.0619	-1320.3169	270.27542	1029.1487	848.05682	183.63676	1196.3021	851.79407	222.40572	1194.3015	1088.8134	202.5125	-1428.1895	1082.7386	240.82559	-1432.215	-1171.8888	1686.9794	-1581.6976	-1170.5498	1648.0034	-1581.4155	-1270.7875	1698.6313	1097.959	-1271.224	1659.6501	1099.09	953.49109	1704.8636	1182.2968	972.77795	1731.8005	1161.7196	1026.4039	1669.1279	-1551.5737	1027.8593	1630.1578	-1552.0293	-180.33302	170.60689	-331.69177	-180.37411	209.4523	-328.22311
554	4.6083333	-1038.2321	214.5583	-1644.2368	-1109.3823	204.08112	-1599.3667	-1063.7322	172.96298	-1625.6774	-1054.1729	262.18057	-1634.9714	-1352.9935	234.79297	1003.6412	-1281.3461	227.18901	1052.3479	-1322.8517	193.5508	1021.0725	-1284.5673	287.72678	1052.9258	814.04456	187.52745	1209.4115	892.29443	178.44815	1179.1746	844.39111	145.52802	1198.3108	860.88782	292.49771	1168.5366	1115.7096	209.58043	-1401.6405	1056.1455	193.91409	-1460.332	1095.0874	162.33269	-1423.9573	1069.7905	238.6785	-1425.8212	-1204.6221	1686.0002	-1563.0681	-1129.1586	1688.2635	-1606.0035	-1173.1783	1724.4222	-1581.9707	-1134.0663	1580.9541	-1603.8533	-1239.4922	1698.9183	1119.4203	-1309.2037	1698.5636	1071.8542	-1270.3706	1736.2303	1096.8813	-1245.5367	1592.6851	1110.6733	988.9032	1664.2615	1162.2125	955.7334	1702.2556	1181.0093	922.81067	1661.9747	1215.0778	939.77344	1659.4117	1159.8689	999.00671	1668.4166	-1579.4381	1058.8542	1670.1404	-1518.6262	1024.9476	1708.0187	-1551.1086	1059.24	1672.1124	-1585.4413	-184.53888	167.25719	-293.99545	-175.2175	174.72035	-377.52502	-180.29964	132.41101	-335.08502	-211.85399	170.23019	-333.14493	-133.1096	168.92059	-326.15561																																														-1068.7588	210.06308	-1624.9854	-1073.9943	248.70335	-1624.2646	-1321.5229	231.45299	1025.0353	-1320.1641	270.21799	1029.0883	848.02271	183.58496	1196.2817	851.72235	222.35402	1194.2147	1088.731	202.4846	-1428.2239	1082.666	240.79446	-1432.2947	-1171.8948	1686.9817	-1581.6884	-1170.5587	1648.0057	-1581.3947	-1270.9247	1698.7583	1097.973	-1271.5011	1659.7791	1099.1085	953.42078	1704.9044	1182.3197	972.65295	1731.8771	1161.7382	1026.4827	1669.2079	-1551.5192	1028.0239	1630.2406	-1551.9315	-180.33411	170.62373	-331.67465	-180.36914	209.46931	-328.20782
